# xmcd CD database file
#
# Track frame offsets:
#	200
#	18200
#	41140
#	66650
#	94850
#	115812
#	134000
#	145775
#	168237
#	183275
#	225875
#
# Disc length: 3143 seconds
#
# Revision: 0
# Processed by: cddbd v1.4PL0 Copyright (c) Steve Scherf et al.
# Submitted via: Feurio! 1.65 - http://www.feurio.com
#
DISCID=920c450b
DTITLE=Mike Becher and Friends - Still Thirsty - Voodoo Blues
DYEAR=1900
DGENRE=
TTITLE0=You'll come back
TTITLE1=Can I get a witness
TTITLE2=Lesbian beauty
TTITLE3=Lonesome bedroom Blues
TTITLE4=It's your way
TTITLE5=Woman I'd want
TTITLE6=Nappy head Blues
TTITLE7=Time of the heart
TTITLE8=Cheatin' Woman
TTITLE9=Mojo (The Voodoo Take)
TTITLE10=Thirsty
EXTD=
EXTT0=
EXTT1=
EXTT2=
EXTT3=
EXTT4=
EXTT5=
EXTT6=
EXTT7=
EXTT8=
EXTT9=
EXTT10=
PLAYORDER=
